<svg width="14" height="14" viewBox="0 0 14 14" fill="none" xmlns="http://www.w3.org/2000/svg">
<path d="M11.996 9.12256L10.1579 8.91269C9.71644 8.86203 9.28224 9.01401 8.97105 9.32519L7.63948 10.6568C5.59147 9.61466 3.91254 7.94296 2.87044 5.8877L4.20925 4.54888C4.52043 4.2377 4.6724 3.80349 4.62174 3.36205L4.41188 1.53836C4.32504 0.807445 3.70991 0.257446 2.97176 0.257446H1.71979C0.902035 0.257446 0.221776 0.937708 0.272434 1.75547C0.655984 7.93572 5.59871 12.8712 11.7717 13.2548C12.5894 13.3054 13.2697 12.6252 13.2697 11.8074V10.5555C13.2769 9.82453 12.7269 9.2094 11.996 9.12256Z" fill="#212121"/>
</svg>
